# xmcd CD database file
#
# Track frame offsets:
#	150
#	63505
#	109960
#	158850
#	224065
#
# Disc length: 3496 seconds
#
# Revision: 0
# Processed by: cddbd v1.5PL3 Copyright (c) Steve Scherf et al.
# Submitted via: CDex 1.50
#
DISCID=4b0da605
DTITLE=Pat Metheny Quartet - Vienne, France. 07/08/03
DYEAR=2003
DGENRE=Jazz
TTITLE0=Soul Cowboy
TTITLE1=What Do You Want
TTITLE2=James
TTITLE3=Every Day I Thank You
TTITLE4=Song For Bilbao
EXTD=YEAR: 2003
EXTT0=
EXTT1=
EXTT2=
EXTT3=
EXTT4=
PLAYORDER=
